HIERARCHY
ROOT Hips
{
	OFFSET 0.00 0.00 0.00
	CHANNELS 6 Xposition Yposition Zposition Xrotation Yrotation Zrotation
	JOINT Spine
	{
		OFFSET 0.00000 7.06031 0.00000
		CHANNELS 3 Xrotation Yrotation Zrotation
		JOINT Head
		{
			OFFSET 0.00000 15.03984 0.00000
			CHANNELS 3 Xrotation Yrotation Zrotation
			End Site
			{
				OFFSET 0.00000 4.52755 0.00000
			}
		}
		JOINT LeftShoulder
		{
			OFFSET 0.00000 10.53012 0.00000
			CHANNELS 3 Xrotation Yrotation Zrotation
			JOINT LeftArm
			{
				OFFSET 7.02874 0.00000 0.00000
				CHANNELS 3 Xrotation Yrotation Zrotation
				JOINT LeftForeArm
				{
					OFFSET 10.79805 0.00000 0.00000
					CHANNELS 3 Zrotation Yrotation Xrotation
					JOINT LeftHand
					{
						OFFSET 7.90723 0.00000 0.00000
						CHANNELS 3 Xrotation Yrotation Zrotation
						JOINT LeftHandThumb1
						{
							OFFSET 0.00000 0.00000 0.00000
							CHANNELS 3 Xrotation Yrotation Zrotation
							End Site
							{
								OFFSET 0.00000 0.00000 3.93700
							}
						}
						End Site
						{
							OFFSET 3.93700 0.00000 0.00000
						}
					}
				}
			}
		}
		JOINT RightShoulder
		{
			OFFSET 0.00000 10.53012 0.00000
			CHANNELS 3 Xrotation Yrotation Zrotation
			JOINT RightArm
			{
				OFFSET -7.02874 0.00000 0.00000
				CHANNELS 3 Xrotation Yrotation Zrotation
				JOINT RightForeArm
				{
					OFFSET -10.79805 0.00000 0.00000
					CHANNELS 3 Zrotation Yrotation Xrotation
					JOINT RightHand
					{
						OFFSET -7.90723 0.00000 0.00000
						CHANNELS 3 Xrotation Yrotation Zrotation
						JOINT RightHandThumb1
						{
							OFFSET 0.00000 0.00000 0.00000
							CHANNELS 3 Xrotation Yrotation Zrotation
							End Site
							{
								OFFSET 0.00000 0.00000 3.93700
							}
						}
						End Site
						{
							OFFSET -3.93700 0.00000 0.00000
						}
					}
				}
			}
		}
	}
	JOINT LeftUpLeg
	{
		OFFSET 4.01164 0.00000 0.00000
		CHANNELS 3 Xrotation Yrotation Zrotation
		JOINT LeftLeg
		{
			OFFSET 0.00000 -16.90780 0.00000
			CHANNELS 3 Xrotation Yrotation Zrotation
			JOINT LeftFoot
			{
				OFFSET 0.00000 -17.38735 0.00000
				CHANNELS 3 Xrotation Yrotation Zrotation
				JOINT LeftToeBase
				{
					OFFSET 0.00000 -1.27464 4.75702
					CHANNELS 3 Xrotation Yrotation Zrotation
					End Site
					{
						OFFSET 0.00000 0.00000 2.95275
					}
				}
			}
		}
	}
	JOINT RightUpLeg
	{
		OFFSET -4.01164 0.00000 0.00000
		CHANNELS 3 Xrotation Yrotation Zrotation
		JOINT RightLeg
		{
			OFFSET 0.00000 -16.90780 0.00000
			CHANNELS 3 Xrotation Yrotation Zrotation
			JOINT RightFoot
			{
				OFFSET 0.00000 -17.38735 0.00000
				CHANNELS 3 Xrotation Yrotation Zrotation
				JOINT RightToeBase
				{
					OFFSET 0.00000 -1.27464 4.75702
					CHANNELS 3 Xrotation Yrotation Zrotation
					End Site
					{
						OFFSET 0.00000 0.00000 2.95275
					}
				}
			}
		}
	}
}
MOTION
Frames: 9
Frame Time: 0.008333
 22.9108 35.5311 -21.7460 -177.6848 -11.8044 -179.9030 -2.7221 4.6716 -0.6135 7.9930 -6.9474 3.8791 -18.3301 7.3145 -2.5474 13.5315 -12.5061 -68.2980 -0.0000 -12.6273 -0.1452 -0.0392 1.5403 1.4585 33.1476 26.2537 -0.0000 20.9045 -3.4556 10.9384 -21.6330 23.3853 67.0438 0.0000 19.8064 19.0537 0.0422 -0.6664 3.6215 32.8623 -24.3270 0.0000 -16.4761 17.5091 4.4960 32.6712 0.0000 -0.0000 -24.7451 24.6249 4.7801 23.7987 -0.0000 0.0000 8.3427 -21.8949 9.7376 -0.5543 -0.0000 -0.0000 -22.2916 -29.3661 -7.0453 22.9092 -0.0000 0.0000
 22.8255 35.5286 -21.8029 -177.5909 -11.7657 179.9883 -2.9495 4.6987 -0.4245 8.3921 -6.9415 3.9354 -18.2078 7.3976 -2.5073 13.9061 -11.6578 -68.1600 0.0000 -11.5669 -0.1408 -0.0339 1.4314 1.3563 33.1476 26.2537 -0.0000 21.0167 -3.5738 10.9051 -21.5846 23.0307 67.1060 0.0000 19.6437 19.0741 0.0476 -0.7714 3.5323 32.8623 -24.3270 -0.0000 -15.3032 17.0266 4.0673 31.0255 -0.0000 0.0000 -24.6818 24.8613 4.9375 23.5670 -0.0000 -0.0000 8.3413 -21.9059 9.6814 -0.1749 0.0000 0.0000 -22.4340 -29.4506 -7.0154 22.7306 -0.0000 -0.0000
 22.7412 35.5245 -21.8586 -177.5373 -11.7108 179.8649 -3.2108 4.7392 -0.2305 8.7339 -6.9546 4.0011 -18.0471 7.5248 -2.4451 14.3858 -11.0866 -68.0494 0.0000 -10.6919 -0.4019 -0.0308 1.4514 1.2146 33.1476 26.2537 0.0000 21.1386 -3.7655 10.8984 -21.5201 22.7626 67.1579 -0.0000 19.4138 18.8423 0.0425 -0.7228 3.3649 32.8623 -24.3270 0.0000 -14.2111 16.5705 3.6770 29.4453 -0.0000 -0.0000 -24.5064 25.2112 5.1166 23.5619 -0.0000 0.0000 8.2721 -21.8226 9.6190 0.2296 0.0000 -0.0000 -22.6643 -29.5449 -7.1056 22.6834 -0.0000 0.0000
 22.6557 35.5207 -21.9138 -177.4602 -11.6620 179.7418 -3.4552 4.7380 -0.0322 9.1222 -6.9633 4.0502 -17.7451 7.6982 -2.3829 14.6589 -10.4958 -67.9784 -0.0000 -9.7221 -0.4571 -0.0282 1.4791 1.0914 33.1476 26.2537 -0.0000 21.2410 -3.8643 10.8754 -21.5362 22.1410 67.2015 0.0000 19.1803 18.6604 0.0379 -0.6047 3.5860 32.8623 -24.3270 -0.0000 -13.1571 16.0890 3.3082 27.9737 0.0000 0.0000 -24.1433 25.6636 5.2456 23.6332 -0.0000 0.0000 8.1856 -21.6409 9.5469 0.6828 -0.0000 0.0000 -22.8704 -29.7548 -7.1007 22.4614 -0.0000 -0.0000
 22.5615 35.5207 -21.9750 -177.3447 -11.6997 179.6747 -3.6825 4.6412 0.1198 9.5444 -6.9114 4.0953 -17.4415 7.9528 -2.3480 14.9676 -10.1466 -67.8500 0.0000 -8.6757 -0.8009 -0.0243 1.5081 0.9248 33.1476 26.2537 0.0000 21.4207 -3.9911 10.9338 -21.4825 21.7967 67.1363 0.0000 18.9154 18.5147 0.0397 -0.6757 3.3626 32.8623 -24.3270 -0.0000 -12.0204 15.6453 2.8924 26.4495 -0.0000 -0.0000 -23.6199 26.0768 5.3356 23.5146 -0.0000 0.0000 8.1549 -21.5386 9.4254 1.1101 -0.0000 0.0000 -23.0143 -29.9263 -6.9621 22.1064 0.0000 -0.0000
 22.4687 35.5174 -22.0346 -177.3014 -11.8041 179.5961 -3.9910 4.5062 0.2307 9.9715 -6.9126 4.2059 -17.2986 8.1131 -2.2532 15.4884 -9.6810 -67.7851 0.0000 -7.7630 -1.1826 -0.0263 1.5886 0.9495 33.1476 26.2537 -0.0000 21.5811 -4.1517 11.0141 -21.3012 21.4408 67.0552 0.0000 18.6947 18.5509 0.0377 -0.6217 3.4730 32.8623 -24.3270 -0.0000 -11.0088 15.1276 2.4864 24.9957 -0.0000 -0.0000 -23.3400 26.4389 5.6620 21.7244 0.0000 0.0000 8.0419 -21.3943 9.3085 1.5559 -0.0000 0.0000 -23.3480 -30.2794 -7.1760 22.1496 0.0000 -0.0000
 22.3671 35.5151 -22.0976 -177.1908 -11.9351 179.5665 -4.2205 4.3509 0.3346 10.3508 -6.9161 4.2989 -17.0733 8.3011 -2.2217 15.8863 -9.1827 -67.7047 0.0000 -6.8306 -1.4030 -0.0217 1.5967 0.7804 33.1476 26.2537 0.0000 21.7502 -4.3138 11.1026 -21.0996 21.0312 66.9181 -0.0000 18.5772 18.4451 0.0501 -0.8032 3.5722 32.8623 -24.3270 0.0000 -9.9111 14.5779 2.0434 23.5341 -0.0000 -0.0000 -23.8972 26.6939 6.3734 22.0471 -0.0000 -0.0000 7.9710 -21.2972 9.1396 2.0325 0.0000 -0.0000 -23.6454 -30.5124 -7.3433 22.1290 -0.0000 0.0000
 22.2622 35.5119 -22.1591 -177.0433 -12.1180 179.5640 -4.3919 4.1166 0.3874 10.7207 -6.9387 4.3981 -16.8207 8.5136 -2.1576 16.2964 -8.7937 -67.6490 -0.0000 -6.0403 -1.7715 -0.0178 1.7082 0.5972 33.1476 26.2537 -0.0000 21.9503 -4.4124 11.2325 -20.8953 20.6401 66.7146 0.0000 18.3821 18.3425 0.0449 -0.7620 3.3758 32.8623 -24.3270 -0.0000 -8.8639 14.1084 1.6143 22.1924 0.0000 -0.0000 -24.5773 26.9826 6.6418 23.0525 -0.0000 -0.0000 7.9113 -21.1683 8.9568 2.5167 0.0000 -0.0000 -23.9702 -30.7517 -7.5066 22.2060 -0.0000 -0.0000
 22.1529 35.5086 -22.2222 -176.8228 -12.3609 179.6154 -4.4835 3.8617 0.4007 11.1054 -6.9671 4.5089 -16.6799 8.6510 -2.1438 16.8042 -8.2257 -67.5687 0.0000 -5.3536 -1.9828 -0.0088 1.9727 0.2569 33.1476 26.2537 -0.0000 22.0964 -4.4770 11.3356 -20.6403 20.0881 66.5142 0.0000 18.2093 18.3188 0.0465 -0.7703 3.4538 32.8623 -24.3270 -0.0000 -7.7634 13.4620 1.1427 20.9125 -0.0000 0.0000 -24.9620 27.3575 6.9978 23.1911 0.0000 -0.0000 7.9106 -21.0312 8.7276 3.0232 -0.0000 -0.0000 -24.3195 -31.0810 -7.7148 22.1101 -0.0000 0.0000
